# xmcd
#
# Track frame offsets:
#	150
#	20913
#	32707
#	77291
#	95967
#	117433
#	153870
#	166833
#	228624
#	250497
#
# Disc length: 3764 seconds
#
# Revision: 0
# Processed by: cddbd v1.5.2PL0 Copyright (c) Steve Scherf et al.
# Submitted via: audiograbber 1.83.01
#
DISCID=7b0eb20a
DTITLE=Savoy Brown - Hellbound Boogie
DYEAR=2006
DGENRE=Blues
TTITLE0=Street Corner Talkin'
TTITLE1=I'm Tired
TTITLE2=Hellbound Train
TTITLE3=Train To Nowhere
TTITLE4=I Can't Get Next To You
TTITLE5=All I Can Do Is Cry
TTITLE6=Needle And Spoon
TTITLE7=Tell Mama
TTITLE8=Lousiana Blues
TTITLE9=The Boogie
EXTD=2 CD Set
EXTT0=
EXTT1=
EXTT2=
EXTT3=
EXTT4=
EXTT5=
EXTT6=
EXTT7=
EXTT8=
EXTT9=
PLAYORDER=
